<svg width="587" height="248" viewBox="0 0 587 248" fill="none" xmlns="http://www.w3.org/2000/svg">
<path d="M0 42C0 18.804 18.804 0 42 0H187.692C210.888 0 229.692 18.804 229.692 42V184C229.692 207.196 210.888 226 187.692 226H42C18.804 226 0 207.196 0 184V42Z" fill="#6750A4"/>
<path d="M26.3083 64C26.3083 40.804 45.1123 22 68.3083 22H214C237.196 22 256 40.804 256 64V206C256 229.196 237.196 248 214 248H68.3083C45.1123 248 26.3083 229.196 26.3083 206V64Z" fill="#A180F9" fill-opacity="0.9"/>
<path d="M156.282 199H192.982L159.582 81.8H118.282L120.682 89.9L90.1819 199H119.582L123.382 180.3H151.782L156.282 199ZM136.282 116.2L146.882 159.9H127.482L136.282 116.2Z" fill="white"/>
<path d="M314.942 171.22L339.409 171.347L317.547 93.0995L290.015 92.9567L291.586 98.3649L270.876 170.992L290.476 171.093L293.074 158.64L312.007 158.738L314.942 171.22ZM301.895 115.952L308.811 145.122L295.878 145.054L301.895 115.952Z" fill="#0B0321"/>
<path d="M360.297 172.856C377.497 172.945 386.133 166.145 386.204 152.456C386.228 147.745 385.071 143.806 382.731 140.638C380.392 137.471 376.627 135.007 371.436 133.246C370.504 132.975 369.395 132.68 368.108 132.362C366.82 132 365.822 131.728 365.112 131.547C364.402 131.321 363.67 131.05 362.916 130.735C362.207 130.376 361.698 129.973 361.389 129.527C361.08 129.037 360.928 128.436 360.931 127.725C360.944 125.236 363.062 124.003 367.284 124.025C372.44 124.051 376.476 125.517 379.395 128.421L382.378 118.903C382.378 118.903 381.98 118.523 381.183 117.763C377.598 114.945 372.005 113.516 364.405 113.476C359.961 113.453 355.936 114.077 352.329 115.347C348.722 116.617 345.756 118.691 343.43 121.567C341.104 124.4 339.931 127.816 339.91 131.816C339.859 141.594 345.004 148.065 355.343 151.23C359.337 152.45 362.22 153.532 363.993 154.475C365.766 155.373 366.649 156.399 366.643 157.555C366.637 158.755 366.121 159.686 365.096 160.347C364.114 161.009 362.291 161.332 359.624 161.319C355.935 161.3 352.316 160.747 348.766 159.662C345.26 158.577 342.756 157.298 341.252 155.823L339.463 166.547C340.656 167.887 343.382 169.279 347.642 170.723C351.901 172.123 356.12 172.834 360.297 172.856Z" fill="#0B0321"/>
<path d="M424.261 171.787L450.26 171.922L432.552 141.363L450.154 115.254L425.154 115.125L414.069 144.468L424.261 171.787ZM390.861 171.614L412.594 171.727L413.047 84.3947L408.714 84.3723L387.297 87.5946L387.265 93.7945L391.252 96.2152L390.861 171.614Z" fill="#0B0321"/>
<path d="M452.731 171.935L474.197 172.046L474.491 115.381L463.358 115.323L449.005 119.182L448.968 126.315L452.955 128.802L452.731 171.935ZM462.723 109.186L465.257 109.199L476.714 98.2585L476.726 95.9252L465.382 84.9329L462.849 84.9197L451.859 95.7962L451.847 98.1295L462.723 109.186Z" fill="#0B0321"/>
<path d="M500.92 173.585C518.12 173.674 526.756 166.875 526.827 153.186C526.851 148.475 525.694 144.535 523.355 141.368C521.015 138.2 517.25 135.736 512.059 133.976C511.128 133.704 510.018 133.41 508.731 133.092C507.444 132.729 506.445 132.458 505.735 132.276C505.025 132.05 504.293 131.78 503.539 131.465C502.83 131.106 502.321 130.703 502.012 130.257C501.703 129.766 501.551 129.166 501.555 128.454C501.568 125.966 503.685 124.732 507.907 124.754C513.063 124.781 517.1 126.246 520.018 129.15L523.001 119.632C523.001 119.632 522.603 119.252 521.807 118.493C518.221 115.674 512.628 114.245 505.029 114.206C500.584 114.183 496.559 114.806 492.952 116.076C489.345 117.347 486.379 119.42 484.053 122.297C481.727 125.129 480.554 128.546 480.533 132.545C480.482 142.323 485.627 148.794 495.966 151.959C499.96 153.18 502.843 154.261 504.616 155.204C506.389 156.102 507.273 157.129 507.267 158.284C507.26 159.484 506.744 160.415 505.719 161.076C504.738 161.738 502.914 162.062 500.247 162.048C496.558 162.029 492.939 161.477 489.389 160.392C485.883 159.307 483.379 158.027 481.875 156.553L480.086 167.277C481.279 168.616 484.005 170.008 488.265 171.453C492.524 172.853 496.743 173.563 500.92 173.585Z" fill="#0B0321"/>
<path d="M553.084 172.456L553.285 133.59C553.33 133.545 553.553 133.346 553.955 132.993C554.401 132.64 554.669 132.419 554.759 132.33C554.892 132.242 555.138 132.066 555.495 131.801C555.896 131.536 556.186 131.36 556.364 131.272C556.587 131.184 556.876 131.053 557.233 130.877C557.589 130.701 557.923 130.591 558.235 130.548C558.59 130.506 558.946 130.485 559.302 130.487C562.99 130.506 564.757 132.605 564.602 136.782L564.417 172.514L586.417 172.629L586.592 138.829C586.594 138.518 586.618 138.096 586.665 137.563C586.668 137.029 586.67 136.629 586.672 136.363C586.712 128.541 585.474 122.956 582.958 119.61C580.487 116.264 576.207 114.575 570.118 114.543C568.384 114.534 566.605 114.881 564.779 115.582C562.998 116.24 561.46 117.054 560.166 118.025C558.873 118.952 557.69 119.901 556.618 120.873C555.591 121.846 554.809 122.686 554.272 123.394L553.466 124.39L553.67 85.1242L549.337 85.1017L527.92 88.324L527.888 94.5239L531.875 96.9446L531.484 172.344L553.084 172.456Z" fill="#0B0321"/>
</svg>
