<svg width="256" height="248" viewBox="0 0 256 248" fill="none" xmlns="http://www.w3.org/2000/svg">
<path d="M0 42C0 18.804 18.804 0 42 0H187.692C210.888 0 229.692 18.804 229.692 42V184C229.692 207.196 210.888 226 187.692 226H42C18.804 226 0 207.196 0 184V42Z" fill="#6750A4"/>
<path d="M26.3083 64C26.3083 40.804 45.1123 22 68.3083 22H214C237.196 22 256 40.804 256 64V206C256 229.196 237.196 248 214 248H68.3083C45.1123 248 26.3083 229.196 26.3083 206V64Z" fill="#A180F9" fill-opacity="0.9"/>
<path d="M156.282 199H192.982L159.582 81.8H118.282L120.682 89.9L90.1819 199H119.582L123.382 180.3H151.782L156.282 199ZM136.282 116.2L146.882 159.9H127.482L136.282 116.2Z" fill="white"/>
</svg>
